<svg id="レイヤー_1" data-name="レイヤー 1" xmlns="http://www.w3.org/2000/svg" viewBox="0 0 1197.62 1624.16"><defs><style>.cls-1{fill:#fff;}.cls-2{fill:#f0d719;}</style></defs><title>アートボード 2</title><path class="cls-1" d="M1009.42,244.39l-240-240A15,15,0,0,0,758.81,0h-320A15,15,0,0,0,428.2,4.39l-240,240a15,15,0,0,0,0,21.21l400,400a15,15,0,0,0,21.21,0l80-80a15,15,0,0,0,0-21.21L380,255,598.81,36.21,657.6,95,508.2,244.39a15,15,0,0,0,0,21.21l80,80a15,15,0,0,0,21.21,0L758.81,196.21,817.6,255,668.2,404.39a15,15,0,0,0,0,21.21l80,80a15,15,0,0,0,21.21,0l240-240A15,15,0,0,0,1009.42,244.39Zm-661.21,0a15,15,0,0,0,0,21.21L657.6,575l-58.79,58.79L220,255,445,30H562.6ZM758.81,473.79,700,415,849.42,265.61a15,15,0,0,0,0-21.21l-80-80a15,15,0,0,0-21.21,0L598.81,313.79,540,255,689.42,105.61a15,15,0,0,0,0-21.21L635,30H752.6l225,225Z"/><path class="cls-1" d="M148.49,845h67.86v32.48H148.49v80.91H108.76V765H216.35v32.48H148.49Z"/><path class="cls-1" d="M352.47,824.12v85c0,19.72-4.06,30.74-15.08,40-10.73,9-25.81,13.92-43.5,13.92-18.56,0-34.51-5.22-44.95-14.79-9.57-8.7-14.21-21.46-14.21-39.15v-85h36.83v82.65c0,15.08,9,25.23,22.33,25.23,13.63,0,21.75-8.7,21.75-22.91v-85Z"/><path class="cls-1" d="M418.39,958.39H381.56V765h36.83V875.74l37.41-51.62h42.63L452.9,888.5l45.53,69.89H455.8l-37.41-55.68Z"/><path class="cls-1" d="M629.77,824.12v85c0,19.72-4.06,30.74-15.08,40C604,958.1,588.88,963,571.19,963c-18.56,0-34.51-5.22-44.95-14.79-9.57-8.7-14.21-21.46-14.21-39.15v-85h36.83v82.65c0,15.08,9,25.23,22.33,25.23,13.63,0,21.75-8.7,21.75-22.91v-85Z"/><path class="cls-1" d="M796.75,892.56c0,39.44-32.19,70.47-73.37,70.47-42.34,0-72.79-29.87-72.79-71.63,0-42.63,29.87-71.92,73.37-71.92C766.3,819.48,796.75,850.22,796.75,892.56Zm-109-1.16c0,23.2,14.5,38.86,36,38.86,21.17,0,36-16,36-38.28,0-24.36-13.63-39.44-35.67-39.44C702.21,852.54,687.71,867.91,687.71,891.4Z"/><path class="cls-1" d="M855.82,958.39H819V765h36.83V875.74l37.41-51.62h42.63L890.33,888.5l45.53,69.89H893.23l-37.41-55.68Z"/><path class="cls-1" d="M1050.29,824.12h36.83V958.39h-36.83V939.83c-12.47,15.95-27,23.2-46.69,23.2-37.7,0-64.67-29.29-64.67-70.18,0-42.34,28.42-73.37,67.57-73.37,18.27,0,30.74,6.38,43.79,21.75Zm-71.92,68.15c0,23.49,15.37,41.18,35.38,41.18,20.59,0,37.12-19.14,37.12-42.34,0-23.78-15.08-40.6-36.83-40.6C993.16,850.51,978.37,867.62,978.37,892.27Z"/><path class="cls-1" d="M39.73,1258.39H0V1065H59.74c47.85,0,73.66,21.17,73.66,60.9,0,30.45-15.95,50.75-45.82,58.29l53.36,74.24H92.8l-53.07-76.85Zm18-100c22.62,0,35.38-11,35.38-30.45,0-18.56-12.18-30.16-31.9-30.16H39.73v60.61Z"/><path class="cls-1" d="M274.86,1124.12v85c0,19.72-4.06,30.74-15.08,40-10.73,9-25.81,13.92-43.5,13.92-18.56,0-34.51-5.22-44.95-14.79-9.57-8.7-14.21-21.46-14.21-39.15v-85H194v82.65c0,15.08,9,25.23,22.33,25.23,13.63,0,21.75-8.7,21.75-22.91v-85Z"/><path class="cls-1" d="M340.78,1258.39H303.95V1065h36.83v75.4c12.76-14.79,25.23-20.88,43.5-20.88,39.44,0,67.57,30.16,67.57,72.5,0,42-26.68,71-65.83,71-20.3,0-33.35-6.38-45.24-22Zm-.58-66.12c0,24.07,14.79,40.89,36,40.89,21.46,0,36.54-16.82,36.54-40.89,0-23.78-15.37-41.76-35.67-41.76C356.44,1150.51,340.2,1169.07,340.2,1192.27Z"/><path class="cls-1" d="M550.62,1124.12h39.15l-75.69,195.46H474.64l25.23-64.38-47-131.08H492l27.26,79.75Z"/><path class="cls-1" d="M644.72,1258.39H605V1065h39.73v84.1l54.81-84.1h46.11L683,1158.05l62.64,100.34H698.95l-54.23-86.13Z"/><path class="cls-1" d="M856.56,1124.12h36.83v134.27H856.56v-18.56c-12.47,15.95-27,23.2-46.69,23.2-37.7,0-64.67-29.29-64.67-70.18,0-42.34,28.42-73.37,67.57-73.37,18.27,0,30.74,6.38,43.79,21.75Zm-71.92,68.15c0,23.49,15.37,41.18,35.38,41.18,20.59,0,37.12-19.14,37.12-42.34,0-23.78-15.08-40.6-36.83-40.6C799.43,1150.51,784.64,1167.62,784.64,1192.27Z"/><path class="cls-1" d="M962.73,1086.13c0,11.31-8.7,20-20.3,20-11.89,0-20.59-8.7-20.59-20.3,0-11.89,8.7-20.59,20.59-20.59S962.73,1074,962.73,1086.13Zm-2,172.26H923.87V1124.12H960.7Z"/><path class="cls-1" d="M1091.89,1124.12h36.25v124.41c0,27.55-5.22,43.5-18,56-13,13-32.77,20.3-55.68,20.3-26.1,0-47.56-8.7-65.83-26.68l22.91-23.2c11.89,12.76,24.65,18.56,41.47,18.56,24.65,0,38.86-14.5,38.86-39.73v-13.63c-12.18,15.37-27.84,22.91-47.27,22.91-36.83,0-63.51-29.87-63.51-70.76,0-43.5,27-72.79,67.28-72.79,18.85,0,31.9,6.38,43.5,21.17Zm-71.63,66.41c0,23.2,15.08,39.73,36.25,39.73a36.87,36.87,0,0,0,27.84-12.47c4.35-5.22,7-13.63,7-23.78,0-14.5-3.19-24.36-9.86-31.32a37.35,37.35,0,0,0-25.23-10.44C1035.05,1152.25,1020.26,1168.2,1020.26,1190.53Z"/><path class="cls-1" d="M1197.62,1086.13c0,11.31-8.7,20-20.3,20-11.89,0-20.59-8.7-20.59-20.3,0-11.89,8.7-20.59,20.59-20.59S1197.62,1074,1197.62,1086.13Zm-2,172.26h-36.83V1124.12h36.83Z"/><path class="cls-2" d="M589.53,1561.81c0,22.33-4.64,36.25-16,47-10.73,10.15-25.52,15.37-44.08,15.37-19.43,0-36-5.8-46.4-16.24-10.73-10.73-14.5-24.65-14.5-54.81v-61.77c0-24.94,3.77-39.15,13-49.3,10.44-11.6,27.26-18,46.69-18,17.69,0,32.77,5.22,43.79,15.08,12.47,11,17.4,24.36,17.4,47.56ZM506,1557.17c0,15.37.58,18.85,4.06,23.49,3.77,5.8,11.6,9.28,19.43,9.28,8.12,0,15.66-3.77,19.43-9.86,2.9-4.93,4.06-10.73,4.06-23.2V1489.6c0-13-1.45-18.56-5.8-23.49-4.06-4.64-10.44-7.25-17.69-7.25-8.7,0-15.95,3.48-19.43,9.57-2.9,4.93-4.06,10.73-4.06,22.91Z"/><path class="cls-2" d="M723.8,1587.62v32.77H606.35l67.57-103.24c14.79-22.62,17.69-28.71,17.69-38,0-12.47-9.57-21.46-22.91-21.46-10.44,0-18.56,5.22-21.75,13.63-2,5.22-2.61,8.7-2.9,18.56H609.83c-.29-40.89,22.91-65.83,61.19-65.83,33.93,0,58,21.46,58,51.33,0,17.69-6.67,33.93-23.78,59.16L669,1587.62Z"/></svg>