<?xml version="1.0" encoding="utf-8"?>
<!-- Generator: Adobe Illustrator 21.1.0, SVG Export Plug-In . SVG Version: 6.00 Build 0)  -->
<!DOCTYPE svg PUBLIC "-//W3C//DTD SVG 1.1//EN" "http://www.w3.org/Graphics/SVG/1.1/DTD/svg11.dtd">
<svg version="1.1" id="レイヤー_1" xmlns="http://www.w3.org/2000/svg" xmlns:xlink="http://www.w3.org/1999/xlink" x="0px"
	 y="0px" viewBox="0 0 1197.6 1614.2" style="enable-background:new 0 0 1197.6 1614.2;" xml:space="preserve">
<style type="text/css">
	.st0{fill:#FFFFFF;}
	.st1{fill:#F0D719;}
</style>
<title>アートボード 2</title>
<path class="st0" d="M1009.4,244.4l-240-240c-2.8-2.8-6.6-4.4-10.6-4.4h-320c-4,0-7.8,1.6-10.6,4.4l-240,240
	c-5.9,5.9-5.9,15.4,0,21.2l400,400c5.9,5.9,15.4,5.9,21.2,0l80-80c5.9-5.9,5.9-15.4,0-21.2L380,255L598.8,36.2L657.6,95L508.2,244.4
	c-5.9,5.9-5.9,15.4,0,21.2l80,80c5.9,5.9,15.4,5.9,21.2,0l149.4-149.4l58.8,58.8L668.2,404.4c-5.9,5.9-5.9,15.4,0,21.2l80,80
	c5.9,5.9,15.4,5.9,21.2,0l240-240C1015.3,259.7,1015.3,250.3,1009.4,244.4z M348.2,244.4c-5.9,5.9-5.9,15.4,0,21.2L657.6,575
	l-58.8,58.8L220,255L445,30h117.6L348.2,244.4z M758.8,473.8L700,415l149.4-149.4c5.9-5.9,5.9-15.4,0-21.2l-80-80
	c-5.9-5.9-15.4-5.9-21.2,0L598.8,313.8L540,255l149.4-149.4c5.9-5.9,5.9-15.4,0-21.2L635,30h117.6l225,225L758.8,473.8z"/>
<path class="st0" d="M148.5,845h67.9v32.5h-67.9v80.9h-39.7V765h107.6v32.5h-67.9V845z"/>
<path class="st0" d="M352.5,824.1v85c0,19.7-4.1,30.7-15.1,40c-10.7,9-25.8,13.9-43.5,13.9c-18.6,0-34.5-5.2-44.9-14.8
	c-9.6-8.7-14.2-21.5-14.2-39.2v-85h36.8v82.7c0,15.1,9,25.2,22.3,25.2c13.6,0,21.8-8.7,21.8-22.9v-85L352.5,824.1z"/>
<path class="st0" d="M418.4,958.4h-36.8V765h36.8v110.7l37.4-51.6h42.6l-45.5,64.4l45.5,69.9h-42.6l-37.4-55.7L418.4,958.4z"/>
<path class="st0" d="M629.8,824.1v85c0,19.7-4.1,30.7-15.1,40c-10.7,9-25.8,13.9-43.5,13.9c-18.6,0-34.5-5.2-45-14.8
	c-9.6-8.7-14.2-21.5-14.2-39.2v-85h36.8v82.7c0,15.1,9,25.2,22.3,25.2c13.6,0,21.8-8.7,21.8-22.9v-85L629.8,824.1z"/>
<path class="st0" d="M796.8,892.6c0,39.4-32.2,70.5-73.4,70.5c-42.3,0-72.8-29.9-72.8-71.6c0-42.6,29.9-71.9,73.4-71.9
	C766.3,819.5,796.8,850.2,796.8,892.6z M687.8,891.4c0,23.2,14.5,38.9,36,38.9c21.2,0,36-16,36-38.3c0-24.4-13.6-39.4-35.7-39.4
	C702.2,852.5,687.7,867.9,687.8,891.4L687.8,891.4z"/>
<path class="st0" d="M855.8,958.4H819V765h36.8v110.7l37.4-51.6h42.6l-45.5,64.4l45.5,69.9h-42.6l-37.4-55.7V958.4z"/>
<path class="st0" d="M1050.3,824.1h36.8v134.3h-36.8v-18.6c-12.5,16-27,23.2-46.7,23.2c-37.7,0-64.7-29.3-64.7-70.2
	c0-42.3,28.4-73.4,67.6-73.4c18.3,0,30.7,6.4,43.8,21.8V824.1z M978.4,892.3c0,23.5,15.4,41.2,35.4,41.2c20.6,0,37.1-19.1,37.1-42.3
	c0-23.8-15.1-40.6-36.8-40.6C993.2,850.5,978.4,867.6,978.4,892.3L978.4,892.3z"/>
<path class="st0" d="M39.7,1258.4H0V1065h59.7c47.8,0,73.7,21.2,73.7,60.9c0,30.4-15.9,50.8-45.8,58.3l53.4,74.2H92.8l-53.1-76.8
	L39.7,1258.4z M57.7,1158.4c22.6,0,35.4-11,35.4-30.4c0-18.6-12.2-30.2-31.9-30.2H39.7v60.6H57.7z"/>
<path class="st0" d="M274.9,1124.1v85c0,19.7-4.1,30.7-15.1,40c-10.7,9-25.8,13.9-43.5,13.9c-18.6,0-34.5-5.2-44.9-14.8
	c-9.6-8.7-14.2-21.5-14.2-39.2v-85H194v82.7c0,15.1,9,25.2,22.3,25.2c13.6,0,21.8-8.7,21.8-22.9v-85L274.9,1124.1z"/>
<path class="st0" d="M340.8,1258.4H304V1065h36.8v75.4c12.8-14.8,25.2-20.9,43.5-20.9c39.4,0,67.6,30.2,67.6,72.5
	c0,42-26.7,71-65.8,71c-20.3,0-33.4-6.4-45.2-22L340.8,1258.4z M340.2,1192.3c0,24.1,14.8,40.9,36,40.9c21.5,0,36.5-16.8,36.5-40.9
	c0-23.8-15.4-41.8-35.7-41.8C356.4,1150.5,340.2,1169.1,340.2,1192.3z"/>
<path class="st0" d="M550.6,1124.1h39.2l-75.7,195.5h-39.4l25.2-64.4l-47-131.1H492l27.3,79.8L550.6,1124.1z"/>
<path class="st0" d="M644.7,1258.4H605V1065h39.7v84.1l54.8-84.1h46.1l-62.6,93.1l62.6,100.3H699l-54.2-86.1L644.7,1258.4z"/>
<path class="st0" d="M856.6,1124.1h36.8v134.3h-36.8v-18.6c-12.5,15.9-27,23.2-46.7,23.2c-37.7,0-64.7-29.3-64.7-70.2
	c0-42.3,28.4-73.4,67.6-73.4c18.3,0,30.7,6.4,43.8,21.8V1124.1z M784.6,1192.3c0,23.5,15.4,41.2,35.4,41.2
	c20.6,0,37.1-19.1,37.1-42.3c0-23.8-15.1-40.6-36.8-40.6C799.4,1150.5,784.6,1167.6,784.6,1192.3z"/>
<path class="st0" d="M962.7,1086.1c0,11.3-8.7,20-20.3,20c-11.9,0-20.6-8.7-20.6-20.3c0-11.9,8.7-20.6,20.6-20.6
	S962.7,1074,962.7,1086.1z M960.7,1258.4h-36.9v-134.3h36.8L960.7,1258.4z"/>
<path class="st0" d="M1091.9,1124.1h36.2v124.4c0,27.6-5.2,43.5-18,56c-13,13-32.8,20.3-55.7,20.3c-26.1,0-47.6-8.7-65.8-26.7
	l22.9-23.2c11.9,12.8,24.7,18.6,41.5,18.6c24.7,0,38.9-14.5,38.9-39.7v-13.6c-12.2,15.4-27.8,22.9-47.3,22.9
	c-36.8,0-63.5-29.9-63.5-70.8c0-43.5,27-72.8,67.3-72.8c18.8,0,31.9,6.4,43.5,21.2L1091.9,1124.1z M1020.3,1190.5
	c0,23.2,15.1,39.7,36.2,39.7c10.6,0.1,20.8-4.5,27.8-12.5c4.3-5.2,7-13.6,7-23.8c0-14.5-3.2-24.4-9.9-31.3
	c-6.8-6.5-15.8-10.3-25.2-10.4C1035.1,1152.2,1020.3,1168.2,1020.3,1190.5z"/>
<path class="st0" d="M1197.6,1086.1c0,11.3-8.7,20-20.3,20c-11.9,0-20.6-8.7-20.6-20.3c0-11.9,8.7-20.6,20.6-20.6
	S1197.6,1074,1197.6,1086.1z M1195.6,1258.4h-36.8v-134.3h36.8V1258.4z"/>
<path class="st1" d="M589.5,1551.8c0,22.3-4.6,36.2-16,47c-10.7,10.2-25.5,15.4-44.1,15.4c-19.4,0-36-5.8-46.4-16.2
	c-10.7-10.7-14.5-24.7-14.5-54.8v-61.8c0-24.9,3.8-39.2,13-49.3c10.4-11.6,27.3-18,46.7-18c17.7,0,32.8,5.2,43.8,15.1
	c12.5,11,17.4,24.4,17.4,47.6L589.5,1551.8z M506,1547.2c0,15.4,0.6,18.8,4.1,23.5c3.8,5.8,11.6,9.3,19.4,9.3
	c8.1,0,15.7-3.8,19.4-9.9c2.9-4.9,4.1-10.7,4.1-23.2v-67.3c0-13-1.5-18.6-5.8-23.5c-4.1-4.6-10.4-7.2-17.7-7.2
	c-8.7,0-16,3.5-19.4,9.6c-2.9,4.9-4.1,10.7-4.1,22.9V1547.2z"/>
<path class="st1" d="M723.8,1577.6v32.8H606.3l67.6-103.2c14.8-22.6,17.7-28.7,17.7-38c0-12.5-9.6-21.5-22.9-21.5
	c-10.4,0-18.6,5.2-21.8,13.6c-2,5.2-2.6,8.7-2.9,18.6h-34.2c-0.3-40.9,22.9-65.8,61.2-65.8c33.9,0,58,21.5,58,51.3
	c0,17.7-6.7,33.9-23.8,59.2l-36.2,53.1H723.8z"/>
</svg>
